<?xml version="1.0" encoding="UTF-8" standalone="no"?>
<svg
   xmlns:dc="http://purl.org/dc/elements/1.1/"
   xmlns:cc="http://creativecommons.org/ns#"
   xmlns:rdf="http://www.w3.org/1999/02/22-rdf-syntax-ns#"
   xmlns:svg="http://www.w3.org/2000/svg"
   xmlns="http://www.w3.org/2000/svg"
   viewBox="0 0 276 422.21332"
   height="422.21332"
   width="276"
   xml:space="preserve"
   id="svg2"
   version="1.1"><metadata
     id="metadata8"><rdf:RDF><cc:Work
         rdf:about=""><dc:format>image/svg+xml</dc:format><dc:type
           rdf:resource="http://purl.org/dc/dcmitype/StillImage" /></cc:Work></rdf:RDF></metadata><defs
     id="defs6" /><g
     transform="matrix(1.3333333,0,0,-1.3333333,0,422.21333)"
     id="g10"><g
       transform="scale(0.1)"
       id="g12"><path
         id="path14"
         style="fill:#000000;fill-opacity:1;fill-rule:nonzero;stroke:none"
         d="m 460,449.895 c 0,-4.204 -9.398,7.605 -10,10.105 -4.703,18.594 -0.199,63.699 -20,80 3.5,13.098 17.598,15.691 20,30 -14.801,31.797 -15.496,77.898 -40,100 -3.301,36.797 8.5,88.496 -10,110 -45.297,4.695 -27.301,-46.809 -20,-70 11.699,-15 12.402,-40.906 30,-50 2.797,-17.5 -28.199,-49.902 0,-60 6.699,0 13.301,0 20,0 -1.5,-24.902 -33.902,-2.898 -40,0 3.199,-23.504 15.801,-37.5 10,-70 7.5,-6.199 13.301,-12.898 20,-20 6.5,-7 7.203,-19.402 20,-20 -6.699,-23.301 -52.5,-7.5 -40,-50 -12.699,2.297 -13.102,29.797 0,30 -0.098,19.895 -27.301,12.695 -20,40 -13.598,-3.105 -8.301,-25 -10,-40 -28.5,22.695 -5.898,38.594 -20,80 -0.098,19.895 -27.301,12.695 -20,40 -10.297,0 -7,-12.5 -10,-20 -9.602,-24.004 -24.5,-50.605 -20,-100 2.102,-22.805 6.301,-24.902 10,-60 1.699,-15.801 8.301,-17.207 10,-30 6.199,-46.301 -2.203,-75.703 20,-110 3.598,-5.508 9.398,1.594 10,-10 0.801,-15.906 29,-31.301 30,-50 0.098,-1.406 7.301,-25.398 10,-30 2.402,-4.102 18.398,-6.504 20,-10 6.5,-14.309 3.102,-25.398 10,-40 2.301,-4.805 9.398,0.996 10,-10 0.602,-11.902 13.598,-25.2031 20,-40 8.102,-18.6992 10.898,-37.3047 20,-60 3.102,-7.6055 9.102,-10.30469 10,-20 C 320,0 160,0 0,0 c 0,273.301 0,546.699 0,820 17.4023,-7.703 24.1016,7.195 30,10 3.5977,1.699 17.5977,-2.898 20,0 9.3008,11.395 38.5977,10.293 70,20 1.5,0.5 3.199,8.301 10,10 13.801,3.496 27.301,3.098 40,10 33.699,18.496 47.898,53.098 80,70 -9.398,30.801 28.699,55.398 30,80 0.199,4.7 7.5,14.49 10,20 4.703,10.2 19.199,24.39 20,40 1.402,25.9 54.602,51.39 60,90 30.398,9.6 59.801,20.2 90,30 -36.5,63.5 -66.898,133.1 -80,220 -8.199,25.2 -52.699,13.89 -70,30 3.102,13.59 25,8.3 40,10 -1.301,32.2 -9.102,72.6 -20,100 -1.402,3.59 2.797,17.7 0,20 -20.297,16.6 -2.5,71.3 -40,80 -13.902,3.4 -14.5,-31.8 -10,-50 5.098,-20.61 24.602,-13 10,-30 5.398,6.3 -18.598,7.6 -10,-10 -16.602,10.1 -10.898,42.5 -20,60 -28.199,-16.9 -25.098,-72.8 -10,-100 2.898,-5.3 9.398,1.3 10,-10 0.801,-15.51 17.699,-50.61 50,-40 -10,-39.71 -40.398,1.59 -60,10 -39.602,87.1 -38.398,215 -40,340 9.703,-0.3 7.797,-12.2 10,-20 20.098,11.2 11.5,77.4 0,90 -21.699,1.7 -4.5,-35.5 -10,-50 -7.797,-18.2 -10.801,6 -10,20 -16.199,37.09 -8.301,98.4 -10,150 20.398,2.89 19.602,27.09 40,30 30.398,0.39 38.902,-21.11 60,-30 -3.598,15.6 4.703,34.8 0,50 -1.5,4.7 -19.301,17 -20,20 -2.996,12.5 1.699,27.2 0,40 -2,14.9 -9.5,18 -10,30 -0.699,16.2 7.699,17.2 10,30 2.898,16.1 -2.203,33.7 0,50 3.102,22.8 10,54.5 10,100 0,21.6 -16.699,63.5 -10,110 2.203,15.2 8.699,17.6 10,30 1.199,11.8 -10.602,81.3 0,90 1.199,1 9.398,-1.2 10,0 1.699,3.6 -2.898,17.6 0,20 13,10.7 4.602,20.5 10,40 0.801,2.7 9.504,0.7 10,10 1,19.3 27.402,56.6 40,80 5,9.2 19.199,25.2 20,40 0.602,11.7 19.902,25.6 30,40 25.801,36.7 28.301,43.6 60,70 3,2.5 7.301,18.8 10,20 12.898,5.8 27.797,4.1 40,20 4.398,5.8 4.504,24.5 10,30 3.102,3.1 17.203,-3.4 20,0 7.203,8.89 15.5,28.2 30,40 3.5,2.8 17.301,-3.4 20,0 6,7.3 16.098,30.8 30,40 13.902,9.1 38.398,9.3 60,20 6.602,3.3 14.398,17 20,20 11.301,6.1 19.902,4.59 30,10 6.5,3.5 14.398,17 20,20 19.199,10.3 34.801,6.39 60,20 5.602,3 15.199,18 20,20 5.5,2.4 14.102,-1.5 20,0 11,2.7 20.199,5.8 50,10 22.598,3.2 42.402,18 60,20 31.098,3.5 149.5,12.89 160,0 1,-1.2 -1.2,-9.4 0,-10 3.61,-1.7 17.6,2.89 20,0 7.1,-8.7 27.5,-10.2 60,-20 25.4,-7.7 51,-19.1 80,-30 3.5,-1.3 17.8,2.7 20,0 0.8,-1 -1,-9.61 0,-10 13.4,-4.9 38.4,-4.3 50,-10 7.3,-3.61 20.2,-23.7 30,-30 3.61,-2.3 17.4,3.2 20,0 2.7,-3.3 6.8,-17.91 10,-20 3.61,-2.4 17.4,3.2 20,0 23.8,-29.1 72.7,-58.8 110,-90 10.2,-8.5 16.7,-19.9 30,-30 9.2,-6.9 21.9,-11.9 30,-20 11.6,-11.6 14.7,-32.3 30,-50 9.5,-11 31.39,-18.5 40,-30 6.3,-8.5 5.1,-21.5 10,-30 10.6,-18.4 35.8,-43.9 50,-70 6.39,-11.8 15.7,-22.7 20,-40 1.5,-5.9 -2.3,-14.4 0,-20 2.5,-6.11 17.9,-15.1 20,-20 2.4,-5.5 -1.5,-14.1 0,-20 2.1,-8.4 12.8,-54.1 20,-80 5.5,-20 17.8,-32.5 20,-50 3.8,-30.9 12.9,-109.9 0,-140 -1.9,-4.5 -10.5,1.1 -10,-10 0.5,-10.8 17.3,-41.2 20,-60 10.7,-75 -1.7,-152 -10,-230 31.6,-1.6 33.4,26.6 70,20 0.3,-9.7 12.2,-7.8 20,-10 34,-39.3 15.3,-131.4 20,-200 -20.7,2.8 -7.2,-29.5 -20,-40 -20.3,-16.6 -29,-96 -40,-140 -1.7,-7 -9.7,-8.8 -10,-10 -6.6,-31.2 -0.7,-71.3 -10,-100 -1.7,-5.2 -18.89,-16.2 -20,-20 -2.5,-8.3 3.89,-22.3 0,-30 -4.8,-9.4 -28.61,-17.21 -30,-40 -16.2,-2.8 -17.2,9.49 -30,10 29.7,-39.4 -45.7,-48.11 -70,-30 -4.3,-40.91 21.11,-52.21 40,-70 38.8,-2.21 13,60.4 50,60 17.7,-73.2 -67.3,-102 -90,-50 -17.5,-9.2 -22.1,-31.3 -20,-60 -20.4,-9.6 -21.6,-38.41 -20,-70 2.5,-10.91 19.9,-6.81 20,-20 62.9,6.2 84.6,-28.7 140,-30 13.8,-27 32.6,-51.9 50,-80 5.7,-9.2 14.9,-12.7 20,-20 2.5,-3.61 -3.3,-17.3 0,-20 1.3,-1.11 9.2,1.39 10,0 2.1,-3.7 -3.1,-17.5 0,-20 1.2,-1 9.4,1.3 10,0 1.7,-3.61 -2.9,-17.61 0,-20 9.1,-7.4 15.5,-18.11 20,-30 1.3,-3.5 -2.7,-17.8 0,-20 1.11,-0.906 9.5,1.2 10,0 1.6,-3.605 -2.8,-17.703 0,-20 1.2,-1.004 9.4,1.301 10,0 1.7,-3.605 -2.9,-17.605 0,-20 14,-11.504 29.1,-64.805 50,-80 16.3,-11.809 48.4,-1.105 60,-20 35.3,2.898 -35.3,27.102 0,30 -1.6,11.699 -18.2,8.398 -30,10 6.9,19.797 26.7,26.699 50,30 0,-310 0,-620 0,-930 -136.7,0 -273.3,0 -410,0 54.3,85.6914 108.3,171.699 180,240 -9.4,44.797 8.61,92.297 10,130 0.3,8.699 -17,18.098 0,20 -4.5,13.594 -12.6,-2.207 -29.9,0 1.9,0 -6.21,8.996 -10.1,10 -15.8,3.895 -38.7,2.793 -30,-30 -19.3,4.094 -7.9,38.801 -40,30 10,13.301 9.5,37.195 30,40 -8.5,14.797 -25.2,21.496 -50,20 5.7,-15.703 49.5,-8.301 20,-40 -1.3,-1.406 -19.9,-9.402 -20,-10 -4.3,-18.008 35.9,-17.805 10,-40 -38.3,-1.809 -3.61,8.191 -10,30 -29.3,-0.703 -37.1,-22.898 -50,-40 -17.8,7.297 -1.39,18.191 0,30 -55.2,-7.305 5.4,-30.305 -20,-50 -43.8,-7.305 8.1,19.895 -20,20 -16.2,7.195 -16.2,-47.207 0,-40 0.1,-18.504 -14.7,6.094 -20,0 -6.3,-7.305 10.4,-50.801 -20,-50 -2.3,-30.305 -9.9,-49.102 -20,-90 -4.5,-18.203 -5.6,-39.102 -10,-50 -2.5,-6.199 -15.7,-10.703 -20,-20 -1.7,-3.605 2.9,-17.6055 0,-20 -1.39,-1.1055 -9.1,1.4961 -10,0 -9.9,-16.5039 1.8,-46.1055 -30,-30 0.3,9.6953 12.2,7.793 20,10 1.3,17.8984 -12.2,21.0938 -10,40 8.1,-1.902 10,-10 20,-10 10.9,25.5 -34.2,51.496 10,50 2.2,23.301 -17.4,23 -10,50 1.6,5.801 13.61,-17.402 10.5,-19.805 3,1.602 19.6,10.606 19.5,9.805 1.6,9.492 -50.7,48.496 10,40 -4.3,18.996 -21.5,25.098 -20,50 13.1,-3.504 15.7,-17.605 30,-20 7.5,30.801 -34.5,12.195 -20,50 -10.9,-2.5 -6.8,-19.902 -20,-20 -5.3,-8.008 -10.4,-16.199 -10,-30 -33.1,14.094 -45.5,-28.699 -70,-30 -11.8,-0.605 -33.89,-13.203 -40,-30 -14.4,5.598 -24.4,15.598 -30,30 -13.4,-6.602 -18.61,-21.406 -20,-40 -24.1,-4.102 -21.7,18.301 -50,10 25.4,24.602 85.8,56.199 120,40 -3.7,16.992 7.8,18.895 20,20 -0.3,9.695 -12.2,7.793 -20,10 -8.89,31.094 67.5,-2.207 40,30 3,17.395 10.6,-4.707 20,0 3.89,1.895 2,30.398 20,20 1.6,11.594 -2.2,17.793 -10,20 8.5,14.895 32.2,14.492 50,20 -1.9,-8.105 -10,-10 -10,-20 25.4,-10.906 38.8,46.797 40,0 29.3,8.496 -13,25.195 0,50 -11.6,1.594 -17.8,-2.207 -20,-10 -23.61,-8.699 11.5,50.898 10,20 30.6,0.691 19.7,56.895 30,70 1,1.199 18.61,-13.699 20,-10 4.4,11.301 -9.3,6.594 -10,10 -1.8,8.801 10,10.293 10,10 -2.3,12.898 -22.8,40.598 10,20 -19.3,43.594 -33.2,-12.207 -40,-20 -8.1,-9.402 -12.3,-19.309 -20,-30 -2.5,-3.504 -18.61,-6.902 -20,-10 -2.1,-4.707 3.2,-16.105 0,-20 -9,-11.004 -28.2,-18.203 -40,-30 -11,-11.004 -19.4,-30.703 -30,-40 -8,-7 -20.8,-3.105 -30,-10 -8.3,-6.199 -15.4,-29.805 -30,-40 -3.61,-2.5 -17.3,3.301 -20,0 -1.2,-1.504 1.5,-9.004 0,-10 -16.6,-11.004 -35.3,-12.102 -50,-20 -7.9,-4.199 -9.1,-15 -20,-20 -9,-4.102 -19.9,2.395 -20,-10 -13.3,-1.504 -30.2,40.691 -40,10 -43.61,9.094 32.8,29.695 20,40 -11,8.801 -1.7,5.398 0,20 -17.6,7.195 -23.8,-6.699 -30,-10 -4.2,-2.207 -16.8,3.191 -20,0 -2.8,-2.805 3.2,-18.008 0,-20 -7.1,-4.5 -22.3,3.594 -30,0 -15.4,1.199 -3.7,-21.902 -10,-30 -4.4,-5.703 -24.6,-4.602 -30,-10 -10.7,-10.703 -2.4,-38.406 -40,-30 -22.6,-5.605 12.1,-15.605 -10,-30 -26.3,10.398 -61.39,11.992 -100,10 26,26.301 -16.2,7.898 -10,40 -54.301,-14.309 -33.598,46.395 -90,30 -6.5,14.695 14.301,19.199 10,30 -4.199,10.5 -37.203,3.801 -40,10 -5.602,12.695 33,6.992 10,40 -4.602,6.594 1,9.395 -10,10 -15.602,0.801 -0.496,13.895 10,10 8.301,21.395 -23.199,24.797 -30,30 -8.699,6.699 -9.5,24.797 -30,20 -12,13.098 -3.902,15.691 0,30 -35.398,-5.398 -24.602,35.398 -60,30 6.602,30 21.402,-9.602 40,0 -9.398,27.195 -50.398,22.898 -80,30 -3.699,-17 7.797,-18.906 20,-20 -18.301,-20.703 -49.801,-9.199 -70,0 -4.602,2.102 -6.301,18.301 -10,20 -4.301,1.992 -16.602,-3.105 -20,0 -8.598,8 -5.898,27.395 -20,30 -21.898,-6.809 19,-33.203 30,-40 2.898,-12.5 -3.699,-27.805 0,-40 2.5,-8.301 15,-11.504 20,-20 2.102,-3.699 -3.102,-17.402 0,-20 3.902,-3.203 29.301,-23.801 40,-30 -15.297,-14.309 -9.703,-52.102 20,-50 -28.902,-28.906 33.801,-45.605 -10,-50 -7.5,-34.199 40.602,-12.703 30,-50 -20.398,-6.406 -21.5,15.398 -30,20 -12.5,6.797 -28.102,1.895 -40,10 -14.102,9.602 -25.898,28.895 -40,40 -7.402,5.898 -13.398,15 -20,20 -17.402,13.301 -37.402,17.395 -60,40 -19.199,19.199 -25.098,33.191 -40,60 -2.898,5.293 -9.398,-1.301 -10,10 -0.398,8.496 -15.199,22.102 -20,30 -15.199,24.695 -23.598,77.898 -60,100 -23.102,-7.305 9.398,-7.703 10,-10 4.602,-17 -14.703,-21.809 -10,-40 9.703,0.293 7.797,12.195 10,20 17.699,3.191 17.797,-56.004 -10,-40 1.402,-19.309 28.699,-4.402 30,-30 0.699,-13.105 -18.598,-3.801 -20,-10 -0.699,-2.898 57.699,-34.102 10,-40 -1.199,-17.898 24.602,-3.203 20,0 10.801,-7.5 12.102,-19.5 20,-30 5.898,-8.008 17.797,-19.309 30,-30 8.801,-7.703 17.102,-16.406 30,-20 -12,-13.105 -3.902,-15.703 0,-30 24.602,-28.699 65,-41.602 90,-70 -3.5,-14.004 -17.598,-0.906 -20,10 -13.301,0 -26.699,0 -40,0 13.398,34.395 -18.301,18.398 -30,30 -18.5,18.301 -34.602,41.992 -40,80 -18.199,-11.809 -7.898,-52.102 -20,-70 23.398,30.691 9.703,7.793 30,-10 -4.398,-14.5 -8.801,0.996 -20,0 -10.801,-20.605 17.102,-14.199 20,-20 1.098,-2.207 -9.301,-15.203 -10,-20 0.5,3.398 15.801,-5.398 10,-10 -17.797,-14.199 4.602,-1.406 10,-10 2.898,-4.602 -12.301,-49.5 20,-40 4.703,-19.102 -30.801,-43.008 10,-40 7.797,-11.699 -10,-17.703 -10,-20 -0.098,-13.8008 16,-2.605 19.902,-9.902 C 597.898,100.098 585.098,47.1016 620,60 617.301,42.8984 598.699,20.6914 630,20 628.102,11.8945 620,10 620,0 c -3.301,0 -6.699,0 -10,0 -18.398,24.8945 -7,79.6953 -40,90 -5.398,33.191 -9.398,60.5 -20,90 -3.801,10.691 -16.699,13 -20,20 -6.301,13.191 -3.199,36.199 -10,50 -3.699,7.5 -18.301,15.598 -20,20 -6.898,17.898 -3.102,50.691 -10,70 -0.898,2.395 -8.102,2.5 -10,10 -4,15.996 -4.102,26.699 -20,30 -6.301,14.895 14,18.801 10,30 -0.898,2.598 -19.801,8.895 -20,10 -2.402,16.496 10.199,16.992 10,29.895 z M 1620.1,1610.6 c 2.8,17.5 -11,31.1 -10.1,39.4 0.1,0.9 19.3,7.5 20,10 4.5,15.6 -14.1,8.5 0,20 17.4,14.3 -13.4,82.7 20,70 -13.2,23 -0.3,45 0,70 0.4,36.6 -11.5,40.6 0,50 8.2,6.7 -6.2,40.9 0,50 -17,19.7 -30.7,42.7 -60,50 -2.1,-12.11 -11.11,-6.11 -20,0 -15.8,-30.9 -34.5,-58.9 -60,-80 -26.9,40.5 -53.3,-1.7 -120,10 7.4,34.1 -36.9,16.5 -40,40 23.4,3.1 41.3,19.59 60,0 3.3,23.4 43.61,9.7 50,30 -11.7,1.7 -10.9,15.8 -10,30 -41.2,7.89 -18.8,-47.91 -60,-40 -32.2,-2.2 -42.3,17.7 -80,10 -13.89,12.7 -4.3,49 -30,50 -5.7,-19.2 -26.5,-12.91 -40,-20 -10.1,-5.3 -15.8,-34 -40,-20 -2.8,26.89 74.3,24.59 40,50 -4.3,-22.4 -49.3,-4 -70,-10 -23.2,-6.8 -26.8,-33.2 -50,-40 -0.6,17.3 -9.2,38.4 -10,60 -0.1,1.7 12.1,-0.3 10,10 -0.7,3.5 -14.2,-1.4 -10,10 0.4,1.1 18.4,8.7 20,10 3.3,2.7 -2.8,16.5 0,20 11.39,14.5 36.5,27.89 50,40 82.4,-7.8 143.8,26 200,40 5.6,1.39 14.9,-2.6 20,0 4.9,2.5 -1.9,23.89 10,20 24.3,6.2 48.3,-6.7 70,-10 23.4,-3.5 58.3,-15.61 70,0 -5.6,0 -11.3,8.1 0,10 3.4,19.9 -14,19.5 -20,30 -5.6,9.8 -2.3,28.89 -10,40 -5.9,8.5 -23.1,11 -30,20 -4.8,6.3 -4.2,14.9 -10,20 3.8,60.5 -1.9,111.39 -30,140 20.5,2.8 20,26.7 30,40 -29.7,0.2 -43.8,65 -50,80 -1.9,4.59 -7.6,0.3 -10,10 -1.7,6.8 3.4,20.5 10,20 0,-5.5 8.1,-11.3 10,0 -7.8,2.2 -11.6,8.4 -10,20 -11.8,1.6 -28.4,-1.7 -30,10 0.5,12.8 12.8,13.89 10,30 -7.4,16 -48.89,-2.3 -40,30 27.6,-27.3 9.4,14.59 30,20 1.7,-11.6 15.8,-10.9 30,-10 13.2,-0.1 9.1,-17.5 20,-20 1.7,11.7 15.8,10.9 30,10 -7.3,27.3 19.9,20.1 20,40 -64.9,11.8 -46.2,107.09 -100,130 -4.2,-43.61 55.9,-97.4 10,-120 11.2,44.5 -30.7,36 -50,50 -1.2,-25.5 -1.9,-51.4 -30,-50 -3.7,29.7 -17.3,49.3 -40,60 -2.1,-12.11 -11.11,-6.11 -20,0 -1.6,-11.8 1.7,-28.4 -10,-30 -7.6,14 -30.5,15.8 -50,20 -30.1,6.39 -73.5,18.4 -90,0 10.9,-2.4 24,-16.5 10,-20 -27.2,21.8 -42.6,-8.61 -70,-10 -1.8,-0.1 -8.7,17.89 -20,10 -2.2,7.8 -8.4,11.6 -20,10 -32.898,-31.2 -65.801,-13.9 -90,-10 1.602,-0.3 -2.898,-10.3 -10,-10 -0.398,0 0.5,9.39 0,10 -5.602,6.89 -19.398,-9.2 -20,-10 -4.199,-5.2 -14.102,8.89 -10,10 -13.902,-3.8 -20.699,-2.91 -30,-10 -6.699,-5.1 -7.598,-20.3 -20,-20 -5.098,0.1 -10.398,31.5 -20,30 -14.801,-11.8 -15.602,-37.8 -30,-50 -18.5,1.5 -6.098,33.89 -20,40 -17.797,-5.5 -41.5,-5.1 -50,-20 10.5,-0.5 7.898,-12.8 -10,-10 -5.496,-39.9 -5.496,-30.1 0,-70 -39.398,-12.91 -30.602,-16.11 -70,-20 -4,-5.5 5,-25.61 0,-30 -3.398,-3 -17.102,3.4 -20,0 -2.898,-3.4 3.398,-17.2 0,-20 -15.801,-12.91 -5.199,-46.6 -30,-60 0.199,-29.8 26,-34 30,-60 -21.098,-8.2 -27.402,-52.7 -10,-70 -13.301,0 -26.699,0 -40,0 10,-26.8 -16.699,-47.4 -10,-60 2.598,-5 23.801,1.89 20,-10 -8.398,-11.6 -13.199,-26.8 -10,-50 -29,-14.4 -41.199,-45.41 -50,-80 41.199,-1.2 62.598,17.4 110,10 -2.797,-33.8 37.004,-35.1 60,-40 32.301,-6.8 22.5,21.39 40,0 10.098,-12.3 51.402,8.6 60,0 15.699,-15.7 27.898,-0.5 50,-10 5.801,-2.5 -2.203,-9.4 10,-10 12.699,-0.7 20.297,-15.5 20,-30 24.801,1.5 41.5,-5.2 50,-20 -5,-31.5 21.801,-39.1 0,-60 27.598,4.3 9.398,-37.3 30,-40 7.898,-34.5 -9.301,-44 -30,-50 11.5,41.5 -21,39 -20,70 -31.5,11.2 -22.598,0.9 -60,0 -1.199,11.39 -9.602,7.2 -20,10 -17.102,4.7 -70,32.8 -60,0 6,-14.4 30.602,-11.2 50,-20 16.602,-7.6 51.402,-17 30,-30 -33.398,0 -34.102,32.5 -70,30 -25.699,-1 -14.301,-39 -40,-40 -30.297,13.8 -35.699,-4.8 -80,0 -28.902,0.39 -23.598,56.5 -50,30 -22.598,-5.61 12.102,-15.61 -10,-30 26,-12.8 30.199,-21.9 60,-10 26.402,-25.9 9.504,-37.2 20,-70 -68.199,-4.1 -95.699,12 -150,0 -8.5,28.2 -32.301,41 -30,80 -23.199,-5.41 -34.5,50.6 -50,20 14.801,-1.9 9.199,-24.2 10,-40 -32.301,6.6 -24.102,-21.7 -30,-30 -3.598,-5.1 -22.996,2.09 -20,-10 25,1.2 31.301,19.1 40,-10 -13.5,-3.11 -19.102,-14.2 -40,-10 4.301,-86.4 8.301,-155.5 30,-260 -17.102,-4.1 2.102,-12.91 0,-30 -14.301,2.4 -16.898,16.5 -30,20 4.504,-72.1 43,-110.3 30,-200 0.098,-13.2 17.5,-9.1 20,-20 -16.699,-43.5 17.898,-112.9 50,-140 1.602,11.8 -1.699,28.4 10,30 -13.699,-40.4 17.898,-35.4 30,-50 -10.199,-70 26.602,0.8 20,-60 28.301,-21.3 57.004,-43.61 80,-70 12.102,-13.91 29.301,-28.5 30,-50 -0.098,-13.2 -17.5,-9.1 -20,-20 13.301,-10 30.199,-16.5 40,-30 8.902,-22.703 29.102,-31.105 40,-40 3.199,-2.605 -3.301,-17.5 0,-20 8.102,-6.301 31.199,5.293 30,-10 -6.801,-20.105 13.301,-13.301 20,-20 3.301,-3.301 -3.301,-16.602 0,-20 15.398,-15.605 46.801,-13.801 50,-40 96.199,-4.102 213.3,-32.805 320,-20 12.9,1.594 14,8.699 30,10 12.1,0.996 14.3,-10.203 30,-10 10.1,0.098 11.8,8.191 20,10 30.3,6.594 29.3,5 50,10 36,63.996 104.5,95.598 110,190 23.89,7.3 25.3,12.5 30,30 4.5,16.89 34.4,12.5 20,40 19,4.3 25.1,21.5 50,20 -5,24.7 24.5,45.5 30,50 3.5,2.9 7.6,26.39 10,30 13.4,20.1 7,46.39 20,60 15.7,16.39 9.2,45.6 10,70 36,-8.11 16,48.1 20,70 2.4,12.9 8.5,14 10,30 3.89,43.1 4.3,66.99 10,90 10.5,41.89 -2.3,51.6 10,70 -0.6,-0.9 10.1,14.3 10.1,10.6 z M 1880,1810 c 2.5,21.6 36.7,62.2 20,70 -19.7,-37.8 2.5,47.7 -20,40 -12.8,-17.8 -19.3,-93.3 0,-110 z m -20,-70 c -9.6,30.39 -11.8,68.2 -40,80 -14.7,-23.61 -21.11,-18.61 -10,-50 -28.4,-4.9 -35.4,-31.3 -40,-60 69.3,6.8 6.9,-18 30,-40 38.3,5 33.89,52.8 60,70 z M 1850,490 c -39.4,15.996 -3.5,-43.203 -30,-40 -2.4,14.297 -16.5,16.895 -20,30 -1.7,15 3.61,36.895 -10,40 16,-33.801 -42.4,-42.703 -10,-60 2.4,15.398 16.5,1.496 20,-10 -5.5,-6.301 -40.6,-30.203 -10,-40 10.7,9.297 3.1,36.895 30,30 3.89,-17.207 -14.8,-25.605 0,-30 12.5,24.199 24.8,48.594 30,80 z m -70,1010 c 12.5,40.8 50.5,56.2 40,120 -43.3,12.7 -46,-66.5 -70,-40 -10.5,43.89 33.8,32.89 30,70 -28.3,8.3 -25.9,-14.1 -50,-10 6.7,-50.1 -9.3,-77.4 -10,-120 37.4,10.69 28.5,-24.8 60,-20 z m -30,0 c -18.89,-2.21 -22.1,11.3 -40,10 0,-16.7 0,-33.3 0,-50 51.39,-4.31 26.39,21.09 40,40 z M 1720,440 c -18.4,1.699 -21.39,-11.809 -30,-20 -3.5,-3.301 -13.8,0.598 -10,-10 32.1,-8.699 31.3,15.398 40,30 z m -30,120 c -15.3,42.598 45.9,59.895 10,90 1.5,-24.805 -5.2,-41.504 -20,-50 -1.3,-13.105 -1.5,-72.305 10,-40 z m -30,1920 c -14.8,44.8 29.3,30.7 20,70 -14.3,3.89 -16.9,12 -30,0 -11.7,15 -12.4,40.9 -30,50 16.8,-36.5 5,-101.6 40,-120 z m -70,160 c 36,-73.5 5.2,25.2 -10,10 -6.7,-6.7 10,-9.9 10,-10 z m -10,80 c -25,-1.7 -31.3,15.39 -40,30 -18.89,24.39 -38.2,48.5 -50,80 -13.8,-0.41 -22,4.7 -30,10 -2,-36.3 27.1,-53.4 40,-80 7,-14.5 3.3,-35.7 10,-50 3.89,-8.2 27,-9.8 20,-30 -10,0 -11.9,8.1 -20,10 4.4,-28.9 21.11,-45.61 50,-50 1.11,12.2 3,23.7 20,20 -9,29.3 -9,30.7 0,60 z m -130,-660 c 0,6.7 0,13.3 0,20 -13.3,0 -26.7,0 -40,0 0,-6.7 0,-13.3 0,-20 13.3,0 26.7,0 40,0 z m -50,10 c -32.2,-1.7 -56.9,2.4 -70,0 -35.6,-6.6 -7.6,-6.9 20,-10 11.2,-1.2 43.7,-25.8 50,10 z M 1320,400 c -15.5,35.598 34,5.996 30,30 -7.8,2.195 -11.6,8.398 -10,20 -26.11,-3.906 -54.9,-5.105 -70,-20 54.3,3.801 11.5,-17.305 0,-30 16.7,0 33.3,0 50,0 z m -50,-60 c 2.8,22.793 -2.4,37.598 -20,40 1.39,-18.605 6.6,-33.406 20,-40 z m -10,-20 c -13.4,1.496 -55.1,-15.703 -30,-20 11.8,4.895 22.7,10.691 30,20 z m -160,230 c 6.11,0.598 11.8,1.496 10,10 -25.6,-10.801 -47.7,30.398 -60,0 20.8,-5.605 21.2,-15.605 10,-30 31.5,-11.504 24.3,15.691 40,20 z M 760,2070 c -10,0 -20,0 -30,0 -35.098,10.5 -90,17.4 -140,20 -0.602,6.1 -1.5,11.8 -10,10 -8.5,-24.9 14.301,-24.4 30,-30 13.301,-4.8 46.098,-8.8 60,-10 31.098,-2.7 73.398,-6.11 90,10 z m -10,-30 c -38.699,-5.3 -48.801,17.89 -90,10 -7.699,-35.1 82.5,-23.3 90,-10 z M 510,350 c -30.398,-33.699 37.004,-30.305 0,0 z m 0,2420 c 2.898,6.1 24.902,38.5 0,40 -2.898,-6.11 -24.902,-38.5 0,-40 z m 0,-2410 c 0,6.699 0,13.301 0,20 -6.699,0 -13.301,0 -20,0 0,-6.699 0,-13.301 0,-20 6.699,0 13.301,0 20,0 z M 270,1650 c -4.902,48.1 25.199,57.6 10,70 -12.5,10.2 9.602,52.09 0,60 -14.301,2.4 -16.898,16.5 -30,20 -33.301,-29.3 -29.703,-142.8 20,-150" /><path
         id="path16"
         style="fill:#ffffff;fill-opacity:1;fill-rule:nonzero;stroke:none"
         d="m 1900,1880 c 16.7,-7.8 -17.5,-48.4 -20,-70 -19.3,16.7 -12.8,92.2 0,110 22.5,7.7 0.3,-77.8 20,-40" /><path
         id="path18"
         style="fill:#ffffff;fill-opacity:1;fill-rule:nonzero;stroke:none"
         d="m 1820.1,390 c 17.3,-2.207 25.4,13.594 29.9,0 -17,-1.902 0.3,-11.301 0,-20 -1.39,-37.703 -19.4,-85.203 -10,-130 C 1768.3,171.699 1714.3,85.6914 1660,0 1313.3,0 966.699,0 620,0 c 0,10 8.102,11.8945 10,20 -31.301,0.6914 -12.699,22.8984 -10,40 -34.902,-12.8984 -22.102,40.098 -20.098,40.098 -3.902,7.297 -20,-3.8988 -19.902,9.902 0,2.297 17.797,8.301 10,20 -40.801,-3.008 -5.297,20.898 -10,40 -32.301,-9.5 -17.102,35.398 -20,40 -5.398,8.594 -27.797,-4.199 -10,10 5.801,4.602 -9.5,13.398 -10,10 0.699,4.797 11.098,17.793 10,20 -2.898,5.801 -30.801,-0.605 -20,20 11.199,0.996 15.602,-14.5 20,0 -20.297,17.793 -6.602,40.691 -30,10 12.102,17.898 1.801,58.191 20,70 5.398,-38.008 21.5,-61.699 40,-80 11.699,-11.602 43.398,4.395 30,-30 13.301,0 26.699,0 40,0 2.402,-10.906 16.5,-24.004 20,-10 -25,28.398 -65.398,41.301 -90,70 -3.902,14.297 -12,16.895 0,30 -12.898,3.594 -21.199,12.297 -30,20 -12.203,10.691 -24.102,21.992 -30,30 -7.898,10.5 -9.199,22.5 -20,30 4.602,-3.203 -21.199,-17.898 -20,0 47.699,5.898 -10.699,37.102 -10,40 1.402,6.199 20.699,-3.105 20,10 -1.301,25.598 -28.598,10.691 -30,30 27.797,-16.004 27.699,43.191 10,40 -2.203,-7.805 -0.297,-19.707 -10,-20 -4.703,18.191 14.602,23 10,40 -0.602,2.297 -33.102,2.695 -10,10 36.402,-22.102 44.801,-75.305 60,-100 4.801,-7.898 19.602,-21.504 20,-30 0.602,-11.301 7.102,-4.707 10,-10 14.902,-26.809 20.801,-40.801 40,-60 22.598,-22.605 42.598,-26.699 60,-40 6.602,-5 12.598,-14.102 20,-20 14.102,-11.105 25.898,-30.398 40,-40 11.898,-8.105 27.5,-3.203 40,-10 8.5,-4.602 9.602,-26.406 30,-20 10.602,37.297 -37.5,15.801 -30,50 43.801,4.395 -18.902,21.094 10,50 -29.703,-2.102 -35.297,35.691 -20,50 -10.699,6.199 -36.098,26.797 -40,30 -3.102,2.598 2.102,16.301 0,20 -5,8.496 -17.5,11.699 -20,20 -3.699,12.195 2.898,27.5 0,40 -11,6.797 -51.898,33.191 -30,40 14.102,-2.605 11.402,-22 20,-30 3.398,-3.105 15.699,1.992 20,0 3.699,-1.699 5.398,-17.898 10,-20 20.199,-9.199 51.699,-20.703 70,0 -12.203,1.094 -23.699,3 -20,20 29.602,-7.102 70.602,-2.805 80,-30 -18.598,-9.602 -33.398,30 -40,0 35.398,5.398 24.602,-35.398 60,-30 -3.902,-14.309 -12,-16.902 0,-30 20.5,4.797 21.301,-13.301 30,-20 6.801,-5.203 38.301,-8.605 30,-30 -10.496,3.895 -25.602,-9.199 -10,-10 11,-0.605 5.398,-3.406 10,-10 23,-33.008 -15.602,-27.305 -10,-40 2.797,-6.199 35.801,0.5 40,-10 4.301,-10.801 -16.5,-15.305 -10,-30 56.402,16.395 35.699,-44.309 90,-30 -6.2,-32.102 36,-13.699 10,-40 38.61,1.992 73.7,0.398 100,-10 22.1,14.395 -12.6,24.395 10,30 37.6,-8.406 29.3,19.297 40,30 5.4,5.398 25.6,4.297 30,10 6.3,8.098 -5.4,31.199 10,30 7.7,3.594 22.9,-4.5 30,0 3.2,1.992 -2.8,17.195 0,20 3.2,3.191 15.8,-2.207 20,0 6.2,3.301 12.4,17.195 30,10 -1.7,-14.602 -11,-11.199 0,-20 12.8,-10.305 -63.61,-30.906 -20,-40 9.8,30.691 26.7,-11.504 40,-10 0.1,12.395 11,5.898 20,10 10.9,5 12.1,15.801 20,20 14.7,7.898 33.4,8.996 50,20 1.5,0.996 -1.2,8.496 0,10 2.7,3.301 16.39,-2.5 20,0 14.6,10.195 21.7,33.801 30,40 9.2,6.895 22,3 30,10 10.6,9.297 19,28.996 30,40 11.8,11.797 31,18.996 40,30 3.2,3.895 -2.1,15.293 0,20 1.39,3.098 17.5,6.496 20,10 7.7,10.691 11.9,20.598 20,30 6.8,7.793 20.7,63.594 40,20 -32.8,20.598 -12.3,-7.102 -10,-20 0,0.293 -11.8,-1.199 -10,-10 0.7,-3.406 14.4,1.301 10,-10 -1.39,-3.699 -19,11.199 -20,10 -10.3,-13.105 0.6,-69.309 -30,-70 1.5,30.898 -33.61,-28.699 -10,-20 2.2,7.793 8.4,11.594 20,10 -13,-24.805 29.3,-41.504 0,-50 -1.2,46.797 -14.6,-10.906 -40,0 0,10 8.1,11.895 10,20 -17.8,-5.508 -41.5,-5.105 -50,-20 7.8,-2.207 11.6,-8.406 10,-20 -18,10.398 -16.11,-18.105 -20,-20 -9.4,-4.707 -17,17.395 -20,0 27.5,-32.207 -48.89,1.094 -40,-30 7.8,-2.207 19.7,-0.305 20,-10 -12.2,-1.105 -23.7,-3.008 -20,-20 -34.2,16.199 -94.6,-15.398 -120,-40 28.3,8.301 25.9,-14.102 50,-10 1.39,18.594 6.6,33.398 20,40 5.6,-14.402 15.6,-24.402 30,-30 6.11,16.797 28.2,29.395 40,30 24.5,1.301 36.9,44.094 70,30 -0.4,13.801 4.7,21.992 10,30 13.2,0.098 9.1,17.5 20,20 -14.5,-37.805 27.5,-19.199 20,-50 -14.3,2.395 -16.9,16.496 -30,20 -1.5,-24.902 15.7,-31.004 20,-50 -60.7,8.496 -8.4,-30.508 -10,-40 0.1,0.801 -16.5,-8.203 -19.5,-9.805 3.11,2.403 -8.9,25.606 -10.5,19.805 -7.4,-27 12.2,-26.699 10,-50 -44.2,1.496 0.9,-24.5 -10,-50 -10,0 -11.9,8.098 -20,10 -2.2,-18.9062 11.3,-22.1016 10,-40 -7.8,-2.207 -19.7,-0.3047 -20,-10 31.8,-16.1055 20.1,13.4961 30,30 0.9,1.4961 8.61,-1.1055 10,0 2.9,2.3945 -1.7,16.395 0,20 4.3,9.297 17.5,13.801 20,20 4.4,10.898 5.5,31.797 10,50 10.1,40.898 17.7,59.695 20,90 30.4,-0.801 13.7,42.695 20,50 5.3,6.094 20.1,-18.504 20,0 -16.2,-7.207 -16.2,47.195 0,40 28.1,-0.105 -23.8,-27.305 20,-20 25.4,19.695 -35.2,42.695 20,50 -1.39,-11.809 -17.8,-22.703 0,-30 12.9,17.102 20.7,39.297 50,40 6.39,-21.809 -28.3,-31.809 10,-30 25.9,22.195 -14.3,21.992 -10,40 0.1,0.598 18.7,8.594 20,10 29.5,31.699 -14.3,24.297 -20,40 24.8,1.496 41.5,-5.203 50,-20 -20.5,-2.805 -20,-26.699 -30,-40 32.1,8.801 20.7,-25.906 40,-30 -8.7,32.793 14.2,33.895 30,30 3.89,-1.004 12,-10 10.1,-10 z M 1519.5,39.0938 C 1515.2,34.1992 1508.1,50 1509.9,50 c -12.1,3.8945 -3,-13.6992 0.1,-10 -1.7,-2 -20,-20 -20,-20 7.5,-11.90234 26,13.9961 29.5,19.0938 z M 1800,340 c 18.61,5.5 10.3,77.793 -10,40 35.1,-2.703 -25.1,-37.305 10,-40 z m -80,-60 c 49.9,-27 49.3,77.5 20,40 27.1,-9.004 -22.9,-22.402 -20,-40 z m -40,10 c -2.2,7.793 -0.3,19.695 -10,20 -0.1,-13.203 -17.5,-9.102 -20,-20 14.3,-3.906 16.9,-12 30,0 z M 1330,180 c -32.1,8.801 -13.7,-33.008 -40,-30 -2.2,7.793 -0.3,19.695 -10,20 -22.4,-21.504 7,-35.398 40,-30 -0.8,17.395 2.2,31.094 10,40" /><path
         id="path20"
         style="fill:#ffffff;fill-opacity:1;fill-rule:nonzero;stroke:none"
         d="m 1820,1820 c 28.2,-11.8 30.4,-49.61 40,-80 -26.11,-17.2 -21.7,-65 -60,-70 -23.1,22 39.3,46.8 -30,40 4.6,28.7 11.6,55.1 40,60 -11.11,31.39 -4.7,26.39 10,50" /><path
         id="path22"
         style="fill:#ffffff;fill-opacity:1;fill-rule:nonzero;stroke:none"
         d="m 1820,450 c 26.5,-3.203 -9.4,55.996 30,40 -5.2,-31.406 -17.5,-55.801 -30,-80 -14.8,4.395 3.89,12.793 0,30 -26.9,6.895 -19.3,-20.703 -30,-30 -30.6,9.797 4.5,33.699 10,40 -3.5,11.496 -17.6,25.398 -20,10 -32.4,17.297 26,26.199 10,60 13.61,-3.105 8.3,-25 10,-40 3.5,-13.105 17.6,-15.703 20,-30" /><path
         id="path24"
         style="fill:#ffffff;fill-opacity:1;fill-rule:nonzero;stroke:none"
         d="m 1820,1620 c 10.5,-63.8 -27.5,-79.2 -40,-120 -31.5,-4.8 -22.6,30.69 -60,20 0.7,42.6 16.7,69.9 10,120 24.1,-4.1 21.7,18.3 50,10 3.8,-37.11 -40.5,-26.11 -30,-70 24,-26.5 26.7,52.7 70,40" /><path
         id="path26"
         style="fill:#000000;fill-opacity:1;fill-rule:nonzero;stroke:none"
         d="m 1790,380 c 20.3,37.793 28.61,-34.5 10,-40 -35.1,2.695 25.1,37.297 -10,40" /><path
         id="path28"
         style="fill:#000000;fill-opacity:1;fill-rule:nonzero;stroke:none"
         d="m 1740,320 c 29.3,37.5 29.9,-67 -20,-40 -2.9,17.598 47.1,30.996 20,40" /><path
         id="path30"
         style="fill:#ffffff;fill-opacity:1;fill-rule:nonzero;stroke:none"
         d="m 1710,1510 c 17.9,1.3 21.11,-12.21 40,-10 -13.61,-18.91 11.39,-44.31 -40,-40 0,16.7 0,33.3 0,50" /><path
         id="path32"
         style="fill:#ffffff;fill-opacity:1;fill-rule:nonzero;stroke:none"
         d="m 1690,420 c 8.61,8.191 11.6,21.699 30,20 -8.7,-14.602 -7.9,-38.699 -40,-30 -3.8,10.598 6.5,6.699 10,10" /><path
         id="path34"
         style="fill:#ffffff;fill-opacity:1;fill-rule:nonzero;stroke:none"
         d="m 1700,650 c 35.9,-30.105 -25.3,-47.402 -10,-90 -11.5,-32.305 -11.3,26.895 -10,40 14.8,8.496 21.5,25.195 20,50" /><path
         id="path36"
         style="fill:#ffffff;fill-opacity:1;fill-rule:nonzero;stroke:none"
         d="m 1680,2550 c 9.3,-39.3 -34.8,-25.2 -20,-70 -35,18.4 -23.2,83.5 -40,120 17.6,-9.1 18.3,-35 30,-50 13.1,12 15.7,3.89 30,0" /><path
         id="path38"
         style="fill:#000000;fill-opacity:1;fill-rule:nonzero;stroke:none"
         d="m 1670,310 c 9.7,-0.305 7.8,-12.207 10,-20 -13.1,-12 -15.7,-3.906 -30,0 2.5,10.898 19.9,6.797 20,20" /><path
         id="path40"
         style="fill:#ffffff;fill-opacity:1;fill-rule:nonzero;stroke:none"
         d="m 1650,1920 c -6.2,-9.1 8.2,-43.3 0,-50 -11.5,-9.4 0.4,-13.4 0,-50 -0.3,-25 -13.2,-47 0,-70 -33.4,12.7 -2.6,-55.7 -20,-70 -14.1,-11.5 4.5,-4.4 0,-20 -0.7,-2.5 -19.9,-9.1 -20,-10 -0.9,-8.3 12.9,-21.9 10.1,-39.4 0,3.7 -10.7,-11.5 -10.1,-10.6 -12.3,-18.4 0.5,-28.11 -10,-70 -5.7,-23.01 -6.11,-46.9 -10,-90 -1.5,-16 -7.6,-17.1 -10,-30 -4,-21.9 16,-78.11 -20,-70 -0.8,-24.4 5.7,-53.61 -10,-70 -13,-13.61 -6.6,-39.9 -20,-60 -2.4,-3.61 -6.5,-27.1 -10,-30 -5.5,-4.5 -35,-25.3 -30,-50 -24.9,1.5 -31,-15.7 -50,-20 14.4,-27.5 -15.5,-23.11 -20,-40 -4.7,-17.5 -6.11,-22.7 -30,-30 -5.5,-94.402 -74,-126.004 -110,-190 -20.7,-5 -19.7,-3.406 -50,-10 -8.2,-1.809 -9.9,-9.902 -20,-10 -15.7,-0.203 -17.9,10.996 -30,10 -16,-1.301 -17.1,-8.406 -30,-10 -106.7,-12.805 -223.801,15.898 -320,20 -3.199,26.199 -34.602,24.395 -50,40 -3.301,3.398 3.301,16.699 0,20 -6.699,6.699 -26.801,-0.105 -20,20 1.199,15.293 -21.898,3.699 -30,10 -3.301,2.5 3.199,17.395 0,20 -10.898,8.895 -31.098,17.297 -40,40 -9.801,13.5 -26.699,20 -40,30 2.5,10.9 19.902,6.8 20,20 -0.699,21.5 -17.898,36.09 -30,50 -22.996,26.39 -51.699,48.7 -80,70 6.602,60.8 -30.199,-10 -20,60 -12.102,14.6 -43.699,9.6 -30,50 -11.699,-1.6 -8.398,-18.2 -10,-30 -32.102,27.1 -66.699,96.5 -50,140 -2.5,10.9 -19.902,6.8 -20,20 13,89.7 -25.496,127.9 -30,200 13.102,-3.5 15.699,-17.6 30,-20 2.102,17.09 -17.102,25.9 0,30 -21.699,104.5 -25.699,173.6 -30,260 20.898,-4.2 26.5,6.89 40,10 -8.699,29.1 -15,11.2 -40,10 -2.996,12.09 16.402,4.9 20,10 5.898,8.3 -2.301,36.6 30,30 -0.801,15.8 4.801,38.1 -10,40 15.5,30.6 26.801,-25.41 50,-20 -2.301,-39 21.5,-51.8 30,-80 54.301,12 81.801,-4.1 150,0 -10.496,32.8 6.402,44.1 -20,70 -29.801,-11.9 -34,-2.8 -60,10 22.102,14.39 -12.598,24.39 10,30 26.402,26.5 21.098,-29.61 50,-30 44.301,-4.8 49.703,13.8 80,0 25.699,1 14.301,39 40,40 35.898,2.5 36.602,-30 70,-30 21.402,13 -13.398,22.4 -30,30 -19.398,8.8 -44,5.6 -50,20 -10,32.8 42.898,4.7 60,0 10.398,-2.8 18.801,1.39 20,-10 37.402,0.9 28.5,11.2 60,0 -1,-31 31.5,-28.5 20,-70 20.699,6 37.898,15.5 30,50 -20.602,2.7 -2.402,44.3 -30,40 21.801,20.9 -5,28.5 0,60 -8.5,14.8 -25.199,21.5 -50,20 0.297,14.5 -7.301,29.3 -20,30 -12.203,0.6 -4.199,7.5 -10,10 -22.102,9.5 -34.301,-5.7 -50,10 -8.598,8.6 -49.902,-12.3 -60,0 -17.5,21.39 -7.699,-6.8 -40,0 -22.996,4.9 -62.797,6.2 -60,40 -47.402,7.4 -68.801,-11.2 -110,-10 8.801,34.59 21,65.6 50,80 -3.199,23.2 1.602,38.4 10,50 3.801,11.89 -17.402,5 -20,10 -6.699,12.6 20,33.2 10,60 13.301,0 26.699,0 40,0 -17.402,17.3 -11.098,61.8 10,70 -4,26 -29.801,30.2 -30,60 24.801,13.4 14.199,47.09 30,60 3.398,2.8 -2.898,16.6 0,20 2.898,3.4 16.602,-3 20,0 5,4.39 -4,24.5 0,30 39.398,3.89 30.602,7.09 70,20 -5.496,39.9 -5.496,30.1 0,70 17.898,-2.8 20.5,9.5 10,10 8.5,14.9 32.203,14.5 50,20 13.902,-6.11 1.5,-38.5 20,-40 14.398,12.2 15.199,38.2 30,50 9.602,1.5 14.902,-29.9 20,-30 12.402,-0.3 13.301,14.9 20,20 9.301,7.09 16.098,6.2 30,10 -4.102,-1.11 5.801,-15.2 10,-10 0.602,0.8 14.398,16.89 20,10 0.5,-0.61 -0.398,-10 0,-10 7.102,-0.3 11.602,9.7 10,10 24.199,-3.9 57.102,-21.2 90,10 11.6,1.6 17.8,-2.2 20,-10 11.3,7.89 18.2,-10.1 20,-10 27.4,1.39 42.8,31.8 70,10 14,3.5 0.9,17.6 -10,20 16.5,18.4 59.9,6.39 90,0 19.5,-4.2 42.4,-6 50,-20 11.7,1.6 8.4,18.2 10,30 8.89,-6.11 17.9,-12.11 20,0 22.7,-10.7 36.3,-30.3 40,-60 28.1,-1.4 28.8,24.5 30,50 19.3,-14 61.2,-5.5 50,-50 45.9,22.6 -14.2,76.39 -10,120 53.8,-22.91 35.1,-118.2 100,-130 -0.1,-19.9 -27.3,-12.7 -20,-40 -14.2,0.9 -28.3,1.7 -30,-10 -10.9,2.5 -6.8,19.9 -20,20 -14.2,-0.9 -28.3,-1.6 -30,10 -20.6,-5.41 -2.4,-47.3 -30,-20 -8.89,-32.3 32.6,-14 40,-30 2.8,-16.11 -9.5,-17.2 -10,-30 1.6,-11.7 18.2,-8.4 30,-10 -1.6,-11.6 2.2,-17.8 10,-20 -1.9,-11.3 -10,-5.5 -10,0 -6.6,0.5 -11.7,-13.2 -10,-20 2.4,-9.7 8.1,-5.41 10,-10 6.2,-15 20.3,-79.8 50,-80 -10,-13.3 -9.5,-37.2 -30,-40 28.1,-28.61 33.8,-79.5 30,-140 5.8,-5.1 5.2,-13.7 10,-20 6.9,-9 24.1,-11.5 30,-20 7.7,-11.11 4.4,-30.2 10,-40 6,-10.5 23.4,-10.1 20,-30 -11.3,-1.9 -5.6,-10 0,-10 -11.7,-15.61 -46.6,-3.5 -70,0 -21.7,3.3 -45.7,16.2 -70,10 -11.9,3.89 -5.1,-17.5 -10,-20 -5.1,-2.6 -14.4,1.39 -20,0 -56.2,-14 -117.6,-47.8 -200,-40 -13.5,-12.11 -38.61,-25.5 -50,-40 -2.8,-3.5 3.3,-17.3 0,-20 -1.6,-1.3 -19.6,-8.9 -20,-10 -4.2,-11.4 9.3,-6.5 10,-10 2.1,-10.3 -10.1,-8.3 -10,-10 0.8,-21.6 9.4,-42.7 10,-60 23.2,6.8 26.8,33.2 50,40 20.7,6 65.7,-12.4 70,10 34.3,-25.41 -42.8,-23.11 -40,-50 24.2,-14 29.9,14.7 40,20 13.5,7.09 34.3,0.8 40,20 25.7,-1 16.11,-37.3 30,-50 37.7,7.7 47.8,-12.2 80,-10 41.2,-7.91 18.8,47.89 60,40 -0.9,-14.2 -1.7,-28.3 10,-30 -6.39,-20.3 -46.7,-6.6 -50,-30 -18.7,19.59 -36.6,3.1 -60,0 3.1,-23.5 47.4,-5.9 40,-40 66.7,-11.7 93.1,30.5 120,-10 25.5,21.1 44.2,49.1 60,80 8.89,-6.11 17.9,-12.11 20,0 29.3,-7.3 43,-30.3 60,-50 z m -300,760 c 15.5,39.59 -33.89,65 -50,40 23.2,-6.8 26.8,-33.2 50,-40 z m -80,-1420 c -34.9,-7.61 -75.5,30.29 -100,0 21.7,-5.61 81.9,-23.91 100,0 z m -20,1470 c 0,6.7 0,13.3 0,20 -6.7,0 -13.3,0 -20,0 0,-6.7 0,-13.3 0,-20 6.7,0 13.3,0 20,0 z m -70,-1250 c 25.5,1.09 19.8,33.5 20,60 -11.39,0.69 -15.1,-3.91 -20,-10 -5.7,-7.1 -10.9,10.4 -10,10 3.61,-1.5 15.1,4.39 10,10 -6.2,6.7 -32.7,-5.7 -30,10 -28.89,-5.4 -47.5,-30.4 -60,-40 -8.4,-6.41 -12.9,-12.7 -20,-20 -91.098,-4.6 -100.602,68 -190,40 -2.402,-39.71 46.5,-41.41 60,-50 13.5,-8.61 31.199,-19.5 40,-20 8.5,-0.4 8.199,-9.6 10,-10 29.7,-6.41 64.7,4.7 100,0 18.1,25.2 38.89,47.7 80,50 6.39,-21.81 -28.3,-31.81 10,-30 z m 10,-180 c -40.9,2.39 -50.7,-6.9 -80,-10 -13.2,-1.41 -22,-9.4 -30,-10 -11.8,-0.8 -14.7,9.49 -30,10 -18.9,0.69 -22.1,-11.11 -40,-10 1.8,-0.11 -5.2,8.8 -10,10 -42.402,10.6 -72.102,5.9 -100,10 -22.402,3.3 -19.301,-14.9 -30,-20 -26.199,-12.4 -69.199,6.99 -60,-30 44.102,-4.31 79,3.59 100,10 31.699,9.6 21.098,4.7 40,0 6.098,-1.5 13.699,0.5 20,0 93.61,-7.8 190.5,-5.3 220,40 z m -90,-190 c -3.2,26.5 56,-9.4 40,30 -63.3,0 -126.7,0 -190,0 -7.797,-2.21 -19.703,-0.3 -20,-10 49,-14.31 104.9,-21.81 170,-20 z m -240,370 c 15,1.7 36.898,-3.61 40,10 -27.598,2.39 -22.797,37.2 -40,50 0,-20 0,-40 0,-60" /><path
         id="path42"
         style="fill:#ffffff;fill-opacity:1;fill-rule:nonzero;stroke:none"
         d="m 1580,2650 c 15.2,15.2 46,-83.5 10,-10 0,0.1 -16.7,3.3 -10,10" /><path
         id="path44"
         style="fill:#ffffff;fill-opacity:1;fill-rule:nonzero;stroke:none"
         d="m 1540,2750 c 8.7,-14.61 15,-31.7 40,-30 -9,-29.3 -9,-30.7 0,-60 -17,3.7 -18.89,-7.8 -20,-20 -28.89,4.39 -45.6,21.1 -50,50 8.1,-1.9 10,-10 20,-10 7,20.2 -16.11,21.8 -20,30 -6.7,14.3 -3,35.5 -10,50 -12.9,26.6 -42,43.7 -40,80 8,-5.3 16.2,-10.41 30,-10 11.8,-31.5 31.11,-55.61 50,-80" /><path
         id="path46"
         style="fill:#000000;fill-opacity:1;fill-rule:nonzero;stroke:none"
         d="m 1509.9,50 c -1.8,0 5.3,-15.8008 9.6,-10.9062 C 1516,33.9961 1497.5,8.09766 1490,20 c 0,0 18.3,18 20,20 -3.1,-3.6992 -12.2,13.8945 -0.1,10" /><path
         id="path48"
         style="fill:#ffffff;fill-opacity:1;fill-rule:nonzero;stroke:none"
         d="m 1450,2080 c 0,-6.7 0,-13.3 0,-20 -13.3,0 -26.7,0 -40,0 0,6.7 0,13.3 0,20 13.3,0 26.7,0 40,0" /><path
         id="path50"
         style="fill:#ffffff;fill-opacity:1;fill-rule:nonzero;stroke:none"
         d="m 1330,2070 c 13.1,2.4 37.8,-1.7 70,0 -6.3,-35.8 -38.8,-11.2 -50,-10 -27.6,3.1 -55.6,3.4 -20,10" /><path
         id="path52"
         style="fill:#000000;fill-opacity:1;fill-rule:nonzero;stroke:none"
         d="m 1300,2720 c 16.11,25 65.5,-0.41 50,-40 -23.2,6.8 -26.8,33.2 -50,40" /><path
         id="path54"
         style="fill:#ffffff;fill-opacity:1;fill-rule:nonzero;stroke:none"
         d="m 1350,430 c 4,-24.004 -45.5,5.598 -30,-30 -16.7,0 -33.3,0 -50,0 11.5,12.695 54.3,33.801 0,30 15.1,14.895 43.89,16.094 70,20 -1.6,-11.602 2.2,-17.805 10,-20" /><path
         id="path56"
         style="fill:#000000;fill-opacity:1;fill-rule:nonzero;stroke:none"
         d="m 1290,150 c 26.3,-3.008 7.9,38.801 40,30 -7.8,-8.906 -10.8,-22.605 -10,-40 -33,-5.398 -62.4,8.496 -40,30 9.7,-0.305 7.8,-12.207 10,-20" /><path
         id="path58"
         style="fill:#ffffff;fill-opacity:1;fill-rule:nonzero;stroke:none"
         d="m 1250,380 c 17.6,-2.402 22.8,-17.207 20,-40 -13.4,6.594 -18.61,21.395 -20,40" /><path
         id="path60"
         style="fill:#000000;fill-opacity:1;fill-rule:nonzero;stroke:none"
         d="m 1170,1260 c 24.5,30.29 65.1,-7.61 100,0 -18.1,-23.91 -78.3,-5.61 -100,0" /><path
         id="path62"
         style="fill:#ffffff;fill-opacity:1;fill-rule:nonzero;stroke:none"
         d="m 1230,300 c -25.1,4.297 16.6,21.496 30,20 -7.3,-9.309 -18.2,-15.105 -30,-20" /><path
         id="path64"
         style="fill:#000000;fill-opacity:1;fill-rule:nonzero;stroke:none"
         d="m 1250,2750 c 0,-6.7 0,-13.3 0,-20 -6.7,0 -13.3,0 -20,0 0,6.7 0,13.3 0,20 6.7,0 13.3,0 20,0" /><path
         id="path66"
         style="fill:#000000;fill-opacity:1;fill-rule:nonzero;stroke:none"
         d="m 1200,1540 c -0.2,-26.5 5.5,-58.91 -20,-60 -38.3,-1.81 -3.61,8.19 -10,30 -41.11,-2.3 -61.9,-24.8 -80,-50 -35.3,4.7 -70.3,-6.41 -100,0 -1.801,0.4 -1.5,9.6 -10,10 -8.801,0.5 -26.5,11.39 -40,20 -13.5,8.59 -62.402,10.29 -60,50 89.398,28 98.902,-44.6 190,-40 7.1,7.3 11.6,13.59 20,20 12.5,9.6 31.11,34.6 60,40 -2.7,-15.7 23.8,-3.3 30,-10 5.1,-5.61 -6.39,-11.5 -10,-10 -0.9,0.4 4.3,-17.1 10,-10 4.9,6.09 8.61,10.69 20,10" /><path
         id="path68"
         style="fill:#000000;fill-opacity:1;fill-rule:nonzero;stroke:none"
         d="m 1110,1290 c 29.3,3.1 39.1,12.39 80,10 -29.5,-45.3 -126.39,-47.8 -220,-40 -6.301,0.5 -13.902,-1.5 -20,0 -18.902,4.7 -8.301,9.6 -40,0 -21,-6.41 -55.898,-14.31 -100,-10 -9.199,36.99 33.801,17.6 60,30 10.699,5.1 7.598,23.3 30,20 27.898,-4.1 57.598,0.6 100,-10 4.8,-1.2 11.8,-10.11 10,-10 17.9,-1.11 21.1,10.69 40,10 15.3,-0.51 18.2,-10.8 30,-10 8,0.6 16.8,8.59 30,10" /><path
         id="path70"
         style="fill:#000000;fill-opacity:1;fill-rule:nonzero;stroke:none"
         d="m 1140,1140 c 16,-39.4 -43.2,-3.5 -40,-30 -65.1,-1.81 -121,5.69 -170,20 0.297,9.7 12.203,7.79 20,10 63.3,0 126.7,0 190,0" /><path
         id="path72"
         style="fill:#ffffff;fill-opacity:1;fill-rule:nonzero;stroke:none"
         d="m 1110,560 c 1.8,-8.504 -3.89,-9.402 -10,-10 -15.7,-4.309 -8.5,-31.504 -40,-20 11.2,14.395 10.8,24.395 -10,30 12.3,30.398 34.4,-10.801 60,0" /><path
         id="path74"
         style="fill:#000000;fill-opacity:1;fill-rule:nonzero;stroke:none"
         d="m 900,1490 c -3.102,-13.61 -25,-8.3 -40,-10 0,20 0,40 0,60 17.203,-12.8 12.402,-47.61 40,-50" /><path
         id="path76"
         style="fill:#ffffff;fill-opacity:1;fill-rule:nonzero;stroke:none"
         d="m 730,2070 c 10,0 20,0 30,0 -16.602,-16.11 -58.902,-12.7 -90,-10 -13.902,1.2 -46.699,5.2 -60,10 -15.699,5.6 -38.5,5.1 -30,30 8.5,1.8 9.398,-3.9 10,-10 50,-2.6 104.902,-9.5 140,-20" /><path
         id="path78"
         style="fill:#ffffff;fill-opacity:1;fill-rule:nonzero;stroke:none"
         d="m 660,2050 c 41.199,7.89 51.301,-15.3 90,-10 -7.5,-13.3 -97.699,-25.1 -90,10" /><path
         id="path80"
         style="fill:#ffffff;fill-opacity:1;fill-rule:nonzero;stroke:none"
         d="m 610,0 c -43.301,0 -86.699,0 -130,0 -0.898,9.69531 -6.898,12.3945 -10,20 -9.102,22.6953 -11.898,41.3008 -20,60 -6.402,14.7969 -19.398,28.098 -20,40 -0.602,10.996 -7.699,5.195 -10,10 -6.898,14.602 -3.5,25.691 -10,40 -1.602,3.496 -17.598,5.898 -20,10 -2.699,4.602 -9.902,28.594 -10,30 -1,18.699 -29.199,34.094 -30,50 -0.602,11.594 -6.402,4.492 -10,10 -22.203,34.297 -13.801,63.699 -20,110 -1.699,12.793 -8.301,14.199 -10,30 -3.699,35.098 -7.898,37.195 -10,60 -4.5,49.395 10.398,75.996 20,100 3,7.5 -0.297,20 10,20 -7.301,-27.305 19.902,-20.105 20,-40 14.102,-41.406 -8.5,-57.305 20,-80 1.699,15 -3.598,36.895 10,40 -7.301,-27.305 19.902,-20.105 20,-40 -13.102,-0.203 -12.699,-27.703 0,-30 -12.5,42.5 33.301,26.699 40,50 -12.797,0.598 -13.5,13 -20,20 -6.699,7.102 -12.5,13.801 -20,20 5.801,32.5 -6.801,46.496 -10,70 6.098,-2.898 38.5,-24.902 40,0 -6.699,0 -13.301,0 -20,0 -28.199,10.098 2.797,42.5 0,60 -17.598,9.094 -18.301,35 -30,50 -7.301,23.191 -25.297,74.695 20,70 18.5,-21.504 6.699,-73.203 10,-110 24.504,-22.102 25.199,-68.203 40,-100 -2.402,-14.309 -16.5,-16.902 -20,-30 19.801,-16.301 15.297,-61.406 20,-80 0.602,-2.5 10,-14.309 10,-10.105 0.199,-12.903 -12.402,-13.399 -10,-29.895 0.199,-1.105 19.102,-7.402 20,-10 4,-11.199 -16.301,-15.105 -10,-30 15.898,-3.301 16,-14.004 20,-30 1.898,-7.5 9.102,-7.605 10,-10 6.898,-19.309 3.102,-52.102 10,-70 1.699,-4.402 16.301,-12.5 20,-20 6.801,-13.801 3.699,-36.809 10,-50 3.301,-7 16.199,-9.309 20,-20 10.602,-29.5 14.602,-56.809 20,-90 33,-10.3047 21.602,-65.1055 40,-90" /><path
         id="path82"
         style="fill:#ffffff;fill-opacity:1;fill-rule:nonzero;stroke:none"
         d="m 510,350 c 37.004,-30.305 -30.398,-33.699 0,0 v 0" /><path
         id="path84"
         style="fill:#ffffff;fill-opacity:1;fill-rule:nonzero;stroke:none"
         d="m 510,2810 c 24.902,-1.5 2.898,-33.9 0,-40 -24.902,1.5 -2.898,33.89 0,40" /><path
         id="path86"
         style="fill:#ffffff;fill-opacity:1;fill-rule:nonzero;stroke:none"
         d="m 510,380 c 0,-6.699 0,-13.301 0,-20 -6.699,0 -13.301,0 -20,0 0,6.699 0,13.301 0,20 6.699,0 13.301,0 20,0" /><path
         id="path88"
         style="fill:#000000;fill-opacity:1;fill-rule:nonzero;stroke:none"
         d="m 350,1390 c 42.102,-48.11 -70.199,-54.31 -50,10 13.398,-6.6 18.598,-21.41 20,-40 21.801,-1.81 31.801,8.19 30,30" /><path
         id="path90"
         style="fill:#ffffff;fill-opacity:1;fill-rule:nonzero;stroke:none"
         d="m 280,1720 c 15.199,-12.4 -14.902,-21.9 -10,-70 -49.703,7.2 -53.301,120.7 -20,150 13.102,-3.5 15.699,-17.6 30,-20 9.602,-7.91 -12.5,-49.8 0,-60" /></g></g></svg>