<?xml version='1.0' encoding='utf-8'?>
<svg xmlns="http://www.w3.org/2000/svg" width="100%" height="100%" version="1.1" style="shape-rendering:geometricPrecision; text-rendering:geometricPrecision; image-rendering:optimizeQuality; fill-rule:evenodd; clip-rule:evenodd" viewBox="0 0 9144 9144"> <defs> <style type="text/css">  .fil0 {fill:white} .fil1 {fill:#F16528;fill-rule:nonzero}  </style> </defs> <g id="Camada_x0020_1"> <metadata id="CorelCorpID_0Corel-Layer"/> <polygon class="fil0" points="0,0 9144,0 9144,9144 0,9144 "/> <path class="fil1" d="M2815 2455l3514 0c40,0 73,33 73,74 0,3 0,6 -1,9l-286 3581c-3,32 -24,57 -53,65l-1467 501c-15,5 -32,5 -46,0 -491,-164 -981,-335 -1470,-502 -29,-10 -48,-35 -50,-64l-287 -3585c-3,-40 27,-75 68,-78l5 -1zm1380 2754l0 -168c0,-41 -33,-73 -73,-73l-431 0c-40,0 -73,32 -73,73l0 537c0,34 24,63 56,71l903 284c18,6 37,4 53,-4l832 -341c26,-11 42,-35 45,-61l0 0 117 -1334c3,-40 -26,-75 -67,-79l-6 0 -1466 0 -19 -359 1551 0c40,0 73,-33 73,-73l0 -430c0,-41 -33,-73 -73,-73l-2082 0c-40,0 -73,32 -73,73l1 9 71 1360c2,39 35,69 73,69l0 1 1394 0 -42 480 -383 158 -381 -120zm-147 53l0 0zm1107 -645c0,-40 -33,-73 -74,-73l-1404 0 -65 -1219 1932 0 0 284 -1555 0 0 0 -4 0c-40,2 -71,36 -69,77l26 500 0 1c0,41 33,73 73,73l1456 0 -106 1210 -770 316 -830 -262 0 -410 283 0 0 148c0,31 21,60 52,70l457 144c16,5 33,4 50,-2l443 -182c28,-9 49,-33 51,-64l53 -603 1 -8z"/> </g> </svg>